<svg width="30" height="31" viewBox="0 0 30 31" fill="none" xmlns="http://www.w3.org/2000/svg">
<rect y="0.5" width="30" height="30" rx="8" fill="#8C8C8C"/>
<g clip-path="url(#clip0_294_2095)">
<path d="M21.2477 9.66763C20.0673 9.115 18.8185 8.72233 17.5343 8.5C17.3743 8.78936 17.1874 9.17854 17.0585 9.48816C15.6739 9.27985 14.3021 9.27985 12.9429 9.48816C12.8141 9.17861 12.623 8.78936 12.4616 8.5C11.1761 8.72243 9.92621 9.1161 8.7452 9.67051C6.39507 13.2239 5.75797 16.6889 6.07649 20.1049C7.63524 21.2696 9.14584 21.9771 10.631 22.4401C11.0001 21.9323 11.3263 21.3946 11.6064 20.8327C11.0732 20.6295 10.5591 20.3792 10.0704 20.0847C10.199 19.9893 10.3246 19.8899 10.447 19.7866C13.4087 21.1727 16.6267 21.1727 19.5531 19.7866C19.6761 19.8892 19.8016 19.9886 19.9297 20.0847C19.4401 20.38 18.9251 20.6308 18.3908 20.8341C18.6725 21.3984 18.9982 21.9366 19.3663 22.4415C20.8528 21.9786 22.3648 21.2711 23.9236 20.1049C24.2973 16.145 23.2851 12.7117 21.2477 9.66756V9.66763ZM12.0099 18.0042C11.1208 18.0042 10.3917 17.1737 10.3917 16.1624C10.3917 15.1511 11.1053 14.3191 12.0099 14.3191C12.9147 14.3191 13.6437 15.1496 13.6282 16.1624C13.6296 17.1737 12.9147 18.0042 12.0099 18.0042ZM17.9901 18.0042C17.101 18.0042 16.3719 17.1737 16.3719 16.1624C16.3719 15.1511 17.0855 14.3191 17.9901 14.3191C18.8948 14.3191 19.6239 15.1496 19.6083 16.1624C19.6083 17.1737 18.8948 18.0042 17.9901 18.0042Z" fill="#262626"/>
</g>
<defs>
<clipPath id="clip0_294_2095">
<rect width="18" height="14" fill="white" transform="translate(6 8.5)"/>
</clipPath>
</defs>
</svg>
