<svg width="30" height="31" viewBox="0 0 30 31" fill="none" xmlns="http://www.w3.org/2000/svg">
<rect x="0.5" y="1" width="29" height="29" rx="7.5" stroke="#8C8C8C"/>
<g clip-path="url(#clip0_294_2089)">
<path fill-rule="evenodd" clip-rule="evenodd" d="M15 6.5C10.0275 6.5 6 10.5275 6 15.5C6 19.4825 8.57625 22.8462 12.1537 24.0387C12.6037 24.1175 12.7725 23.8475 12.7725 23.6112C12.7725 23.3975 12.7613 22.6887 12.7613 21.935C10.5 22.3512 9.915 21.3837 9.735 20.8775C9.63375 20.6187 9.195 19.82 8.8125 19.6062C8.4975 19.4375 8.0475 19.0212 8.80125 19.01C9.51 18.9987 10.0163 19.6625 10.185 19.9325C10.995 21.2937 12.2887 20.9112 12.8062 20.675C12.885 20.09 13.1213 19.6962 13.38 19.4712C11.3775 19.2462 9.285 18.47 9.285 15.0275C9.285 14.0487 9.63375 13.2387 10.2075 12.6087C10.1175 12.3837 9.8025 11.4612 10.2975 10.2237C10.2975 10.2237 11.0512 9.9875 12.7725 11.1462C13.4925 10.9437 14.2575 10.8425 15.0225 10.8425C15.7875 10.8425 16.5525 10.9437 17.2725 11.1462C18.9937 9.97625 19.7475 10.2237 19.7475 10.2237C20.2425 11.4612 19.9275 12.3837 19.8375 12.6087C20.4113 13.2387 20.76 14.0375 20.76 15.0275C20.76 18.4812 18.6562 19.2462 16.6537 19.4712C16.98 19.7525 17.2613 20.2925 17.2613 21.1362C17.2613 22.34 17.25 23.3075 17.25 23.6112C17.25 23.8475 17.4187 24.1287 17.8687 24.0387C19.6554 23.4355 21.2079 22.2873 22.3077 20.7555C23.4076 19.2238 23.9995 17.3857 24 15.5C24 10.5275 19.9725 6.5 15 6.5Z" fill="#8C8C8C"/>
</g>
<defs>
<clipPath id="clip0_294_2089">
<rect width="18" height="18" fill="white" transform="translate(6 6.5)"/>
</clipPath>
</defs>
</svg>
