<svg width="16" height="16" viewBox="0 0 16 16" fill="none" xmlns="http://www.w3.org/2000/svg">
<path fill-rule="evenodd" clip-rule="evenodd" d="M8 0.197357C3.58 0.197357 0 3.77736 0 8.19736C0 11.7374 2.29 14.7274 5.47 15.7874C5.87 15.8574 6.02 15.6174 6.02 15.4074C6.02 15.2174 6.01 14.5874 6.01 13.9174C4 14.2874 3.48 13.4274 3.32 12.9774C3.23 12.7474 2.84 12.0374 2.5 11.8474C2.22 11.6974 1.82 11.3274 2.49 11.3174C3.12 11.3074 3.57 11.8974 3.72 12.1374C4.44 13.3474 5.59 13.0074 6.05 12.7974C6.12 12.2774 6.33 11.9274 6.56 11.7274C4.78 11.5274 2.92 10.8374 2.92 7.77736C2.92 6.90736 3.23 6.18736 3.74 5.62736C3.66 5.42736 3.38 4.60736 3.82 3.50736C3.82 3.50736 4.49 3.29736 6.02 4.32736C6.66 4.14736 7.34 4.05736 8.02 4.05736C8.7 4.05736 9.38 4.14736 10.02 4.32736C11.55 3.28736 12.22 3.50736 12.22 3.50736C12.66 4.60736 12.38 5.42736 12.3 5.62736C12.81 6.18736 13.12 6.89736 13.12 7.77736C13.12 10.8474 11.25 11.5274 9.47 11.7274C9.76 11.9774 10.01 12.4574 10.01 13.2074C10.01 14.2774 10 15.1374 10 15.4074C10 15.6174 10.15 15.8674 10.55 15.7874C12.1381 15.2512 13.5181 14.2305 14.4958 12.8689C15.4734 11.5074 15.9995 9.87355 16 8.19736C16 3.77736 12.42 0.197357 8 0.197357Z" fill="black"/>
</svg>
